<?xml version="1.0" standalone="no"?>
<!DOCTYPE svg PUBLIC "-//W3C//DTD SVG 20010904//EN"
 "http://www.w3.org/TR/2001/REC-SVG-20010904/DTD/svg10.dtd">
<svg version="1.0" xmlns="http://www.w3.org/2000/svg"
 width="220.000000pt" height="220.000000pt" viewBox="0 0 220.000000 220.000000"
 preserveAspectRatio="xMidYMid meet">
<metadata>
Created by potrace 1.11, written by Peter Selinger 2001-2013
</metadata>
<g transform="translate(0.000000,220.000000) scale(0.100000,-0.100000)"
fill="#000000" stroke="none">
<path d="M534 2190 c-24 -9 -34 -33 -64 -143 -18 -66 -20 -97 -17 -210 3 -72
6 -136 8 -142 1 -5 -1 -30 -4 -55 -4 -25 -9 -65 -11 -90 -5 -57 -27 -112 -42
-106 -7 3 -11 -3 -9 -12 1 -9 -1 -19 -4 -22 -12 -9 -41 -59 -41 -70 0 -6 -11
-35 -25 -64 -13 -29 -27 -68 -29 -88 -5 -41 -39 -102 -50 -90 -4 4 -5 -5 -1
-20 5 -18 2 -29 -9 -35 -18 -10 -38 -93 -27 -108 5 -5 7 -19 5 -30 -1 -10 2
-25 7 -31 11 -13 8 -58 -4 -70 -4 -4 -7 -16 -7 -26 0 -10 -9 -37 -19 -59 -11
-21 -15 -36 -9 -33 6 4 3 -4 -5 -17 -9 -13 -16 -27 -17 -31 0 -4 -2 -13 -5
-20 -7 -21 -27 -121 -28 -145 -1 -13 -5 -23 -9 -23 -21 0 15 -50 83 -114 165
-156 379 -265 610 -312 64 -13 121 -15 282 -11 219 4 271 14 434 78 l80 31 -2
41 c-2 49 15 98 29 89 7 -3 7 0 0 9 -6 8 -10 23 -8 34 6 33 6 58 1 102 -7 52
14 83 41 61 13 -11 14 -11 8 0 -4 7 0 29 9 49 13 26 16 50 12 86 -7 56 -27 83
-74 103 -27 12 -31 18 -27 41 8 48 10 50 65 47 43 -2 57 2 78 22 14 13 27 29
27 34 1 6 2 14 3 20 0 5 7 8 14 6 6 -1 9 -1 5 1 -17 10 -7 31 17 35 13 3 22 2
20 -3 -3 -4 0 -11 6 -15 7 -4 9 -3 5 4 -3 6 -2 13 3 17 15 9 3 31 -25 43 -13
7 -24 20 -24 30 0 9 -7 28 -16 40 -8 12 -12 22 -9 22 3 0 -6 12 -20 27 -32 36
-32 52 3 51 44 0 92 11 118 29 42 27 102 171 119 284 4 24 13 55 21 70 7 15
13 43 11 61 -2 30 -6 33 -42 40 -59 10 -173 8 -230 -5 l-50 -12 -32 36 c-34
38 -47 105 -25 131 6 7 18 45 27 83 76 338 73 320 47 334 -28 15 -71 -14 -128
-84 -26 -33 -55 -67 -64 -75 -26 -27 -110 -92 -110 -86 0 3 -18 -1 -40 -10
-30 -12 -57 -15 -103 -10 -89 8 -347 10 -393 2 -45 -8 -63 6 -106 79 -50 87
-129 183 -162 199 -38 18 -42 18 -72 6z"/>
<path d="M1778 838 c6 -6 18 -8 28 -6 14 3 12 5 -9 10 -19 3 -25 2 -19 -4z"/>
</g>
</svg>
